<svg version="1" xmlns="http://www.w3.org/2000/svg" width="1365.333" height="1365.333" viewBox="0 0 1024.000000 1024.000000"><path d="M71 66.4c-1.9.8-5.1 2-7 2.7-1.9.8-3.7 1.6-4 2-.3.3-2.2 1.5-4.2 2.8-2.1 1.2-3.8 2.7-3.8 3.2s-.5.9-1.1.9c-1.6 0-11.4 10.6-16 17.3-5 7.2-12 21.4-14.4 28.7-1 3-2 5.9-2.4 6.5-.3.5-.6 1.4-.8 2-.4 1.9-1.2 5-2.8 10.5-.9 3-1.8 6.6-2.1 8-.3 1.4-1 4.3-1.6 6.5-.5 2.2-1.2 4.9-1.4 6-1 5.2-3.5 19.9-4 23.7-.3 2.4-.7 5.4-1 6.8-.2 1.4-.6 5-.9 8-.3 3-.7 6.4-1 7.5C-.3 223.1-.3 356.2 2.4 380c.3 1.9.7 7.1 1.1 11.5.3 4.4.9 10 1.2 12.5.2 2.5.6 6.1.8 8 .3 3.4 1.1 10.8 2 18 .5 4.2 1.2 9.3 2.5 18 .6 3.6 1.3 8.3 1.6 10.5.3 2.2.7 4.9.9 6 .2 1.1.6 3.8 1 6s1 5.8 1.5 8 1.2 5.6 1.5 7.5c.3 1.9 1.1 5.3 1.7 7.5.6 2.2 1.1 4.7 1.2 5.5.6 5.1 5.9 19.7 8.7 24 5.7 8.9 7.4 11.1 11.8 15.3 2.7 2.6 5.4 4.7 6 4.7.6 0 1.1.4 1.1 1 0 .5.6 1 1.4 1 .8 0 1.6.4 1.8.8.4 1.2 12.5 5.9 17.3 6.8 2.2.3 4.9.8 6 1.1 1.1.2 3.6.6 5.5.9 1.9.3 4.6.7 6 1 3.2.6 6.2 1.1 16.3 2.4 4.5.6 9.3 1.3 10.7 1.5 1.4.2 5.2.7 8.5 1 3.3.3 7.8.9 10 1.2 2.2.3 5.8.7 8 .8 2.2.2 8.3.6 13.5 1 5.2.4 12.2.8 15.5 1 7.7.5 51.2.5 58.9 0 19.4-1.2 25.3-1.7 27.1-2.2 1.1-.3-5.3 6.8-14.2 15.8-14.6 14.8-25.3 25.9-34.5 35.9-8 8.6-20.8 22.8-23.4 25.8-1.6 1.9-4 4.6-5.4 6.1-1.4 1.6-4 4.6-5.8 6.9-1.8 2.2-4.4 5.3-5.8 6.9-1.4 1.5-3.5 4.1-4.7 5.7-1.2 1.6-3.3 4-4.6 5.2-1.3 1.3-2 2.4-1.5 2.4s-.2.7-1.4 1.6c-1.2.8-2.2 2.1-2.2 2.7 0 .7-.9 1.9-2 2.7-1.1.8-2 2-2 2.6 0 .7-.3 1.4-.7 1.6-.5.1-2.1 2.1-3.8 4.2-1.6 2.2-4.7 6.1-6.7 8.8-2.1 2.7-3.8 5.1-3.8 5.5 0 .4-.8 1.6-1.9 2.7-1 1.2-4.4 5.9-7.5 10.6-3.1 4.7-6 9-6.4 9.5-1.3 1.6-14.2 23.6-14.2 24.2 0 .3-1 2.2-2.2 4.2-1.3 2-2.3 3.8-2.3 4.1 0 .3-2.6 5.8-5.8 12.2-4.8 9.8-5.8 12.7-5.8 17 0 6.7.5 8.8 3.2 14.3 1.8 3.6 9.6 10.8 11.9 11 .3.1 2.9.7 5.9 1.4 6.2 1.6 19.4 1.7 48.1.5 32-1.3 72-.8 89.5 1.1 1.7.2 5.5.6 8.5.9 3 .4 7.5.8 10 1.1 2.5.3 5.6.7 7 1 1.4.2 4.4.7 6.8 1 3.5.5 16.5 2.9 27.1 5.1 7.8 1.6 32.2 8 35.1 9.1.8.4 2.3.7 3.3.8 1 .1 2.8.7 4 1.3 1.2.7 6.5 2.5 11.7 4.2 10.3 3.4 27.9 10 34.7 13.1 2.4 1 4.5 1.9 4.7 1.9.6 0 34.8 15.2 40.3 17.9 2.3 1.2 4.6 2.1 5.2 2.1.5 0 1.1.4 1.3.8.2.4 5 3 10.8 5.7 5.8 2.7 11.2 5.4 12 6 .8.7 3.8 2.3 6.5 3.6 2.8 1.2 10.5 5.4 17.3 9.1 6.7 3.7 12.5 6.8 12.7 6.8.3 0 3.3 1.7 6.7 3.8 3.5 2.1 6.5 3.9 6.8 3.9 1.2.2 7.5 4 11.5 7 13.6 10.2 25.4 12.9 35.3 8.2 5.7-2.8 8.4-5.4 11.2-10.9 2.4-4.7 3-13.1 1.6-21.5-.3-2.2-1.1-6.7-1.6-10-2.3-14.4-4.4-25.9-5-27.5-.1-.3-.3-1-.4-1.5-.4-2.6-7.9-33-9.6-39-.5-1.7-1.2-4.1-1.5-5.5-.4-1.4-1-3.4-1.5-4.5s-1.1-3.1-1.3-4.5c-.3-1.4-1.7-6.3-3.2-11-1.4-4.7-2.8-9-2.9-9.5-.2-.6-.5-1.7-.8-2.5-.3-.8-8-24-17.1-51.5-17.3-51.9-22.5-70-25.7-88.5-.6-3-1.2-6.4-1.4-7.5-1.6-8.6-3.5-24.7-4.1-36l-.3-6 2.2 4.5c1.1 2.5 2.9 5.4 3.8 6.4 1 1 1.5 2.3 1.2 2.7-.2.4 0 1 .6 1.4.5.3 1.7 2.3 2.7 4.3.9 2 3.3 6.4 5.3 9.7 1.9 3.3 4.2 7.3 5 9 .8 1.6 1.7 3.2 2 3.5.5.5 4.1 7 7.9 14.5.9 1.6 1.9 3.2 2.2 3.5.3.3 2.1 3.2 3.9 6.5 1.8 3.3 4.3 7.8 5.5 10 1.3 2.2 3.9 6.9 5.9 10.3 2 3.5 3.6 6.8 3.6 7.3s.3.9.8.9c.4 0 1.4 1.5 2.1 3.3.8 1.7 2.9 5.7 4.7 8.7 1.8 3 3.1 5.8 3.1 6.1-.1.4.5 1.5 1.4 2.5.9 1.1 2.6 3.7 3.6 5.9 3.7 7.4 9.3 17.8 10.4 19.2.6.7.9 1.3.6 1.3-.3 0 1.3 3.3 3.5 7.2 2.2 4 4.1 8.1 4.4 9.2.2 1 1 2.6 1.9 3.6.8.9 1.5 2.1 1.5 2.7 0 .5 1.4 3.8 3.1 7.4 6.8 13.9 18.4 45 20.3 54.1.3 1.3.8 3.4 1.1 4.8 3.8 16.3 5.4 41.3 3.5 52.5-.5 2.7-1.1 6.8-1.5 9-.3 2.2-.9 4.9-1.2 6-.9 2.6-1 3.2-2.3 8.5-.6 2.4-1.4 4.9-1.8 5.5-.5.5-1.4 2.8-2.1 5-.7 2.2-3.6 8.7-6.4 14.5-4.1 8.7-5 11.5-5 16.1 0 5.6 1.8 11.9 3.4 11.9.5 0 .9.6.9 1.2 0 .7 1.3 2.2 2.8 3.3 4.9 3.6 25.2 3 25.2-.7 0-.5.3-.7.8-.6.9.3 34.5-16.2 35.2-17.3.3-.4 1.8-1.1 3.3-1.4 1.5-.4 2.7-1.1 2.7-1.7 0-.5.4-.7.9-.3.5.3 1.2.1 1.5-.4.3-.5 5-3.2 10.4-5.9 14.5-7.4 16.6-8.6 17.4-9.7.4-.6.8-.6.8-.1s.6.4 1.2-.1c.7-.6 3.9-2.4 7.1-4.2 11.1-6 16.3-8.8 24.2-13.1 8.3-4.5 54.2-29.9 65.5-36.3 1.9-1.1 5.5-3.1 8-4.5s10.8-6.1 18.5-10.5c7.7-4.4 15.8-9 18-10.2 2.2-1.2 5.6-3.2 7.5-4.4 1.9-1.1 4.1-2.4 4.9-2.7.7-.4 10.6-6.1 22-12.7 11.3-6.6 22-12.7 23.6-13.5 1.7-.9 3.6-2.2 4.3-2.9.7-.7 2-1.3 2.8-1.3.8 0 1.4-.3 1.4-.8 0-.4 1.5-1.3 3.3-2.1 1.7-.8 3.4-1.7 3.7-2 1-1.2 22.8-14.1 23.8-14.1.6 0 1.2-.4 1.4-.8.4-1 10.5-7.2 11.8-7.2.6 0 1-.5 1-1 0-.6.5-1 1.1-1 1.9 0 13.3-8.2 17.6-12.6 6.6-6.9 9.1-13.6 8.7-23.6-.4-10-4.9-19.1-14.9-30-2.2-2.4-5.8-6.5-8-9.3C950 684.4 928.1 663 911 649c-3-2.5-5.7-4.7-6-5-.3-.3-2.5-2.1-5-4s-4.6-3.8-4.8-4.2c-.2-.4-.9-.8-1.6-.8-.6 0-1.8-.9-2.6-2s-2-2-2.6-2c-.7 0-1.4-.3-1.6-.8-.4-.8-6.6-5.6-12-9.2-2.1-1.4-3.8-2.8-3.8-3.3 0-.4-.7-.7-1.5-.7s-1.5-.5-1.5-1c0-.6-.5-1-1.1-1-.6 0-1.7-.6-2.4-1.4-1.2-1.2-1.1-1.5.8-1.9 1.2-.3 5-.6 8.4-.6 3.4-.1 7-.4 8-.5 1-.2 4.4-.7 7.5-1 14.9-1.7 31-8 40.2-15.6 6.5-5.4 14.7-14.8 15.9-18.3.4-.9 1.1-1.7 1.7-1.7.6 0 .9-.4.5-.9-.3-.5-.1-1.2.4-1.5 1.1-.7 14.1-27 14.1-28.6 0-.5.5-1 1-1 .6 0 .9-.3.8-.8-.1-.7.9-3.6 4.1-10.5 1.6-3.5 4.9-11.3 10.3-24.5.6-1.5 1.2-3.2 1.3-3.7.2-.6 1.8-5.1 3.8-10 3.1-8 14.3-41.6 15.2-45.5.2-.8 1.5-5.6 2.9-10.6 2.5-8.5 3-10.4 4.2-16.1.2-1.2.9-3.4 1.4-4.8.5-1.4.7-2.5.5-2.5-.2 0 0-1.1.5-2.5s1.2-3.6 1.4-4.8c.2-1.2 1.8-9 3.5-17.2 3-14.9 3.5-17.5 4.6-24.9.4-2.1.8-4.7 1-5.8.3-1.1.7-4.6 1-7.7.4-3.1.9-6.7 1.1-8.1.3-1.4.7-4.3.8-6.5.2-2.2.7-7.4 1.2-11.5 1.1-9.3 1.2-77.5.1-85.1-1.4-10.1-5.1-24.8-7.3-29.1-.8-1.5-1.2-2.8-.9-2.8.3 0-.2-1.1-1.1-2.5-.9-1.4-1.3-2.5-.9-2.5.3 0-.3-1.4-1.5-3-1.2-1.7-1.9-3-1.6-3 .3 0-.6-1.7-1.9-3.8-8.6-12.9-21.8-25-34.5-31.7-3-1.6-6.7-3.8-8.2-4.8-1.6-1-2.8-1.6-2.8-1.3 0 .3-3.7-1.6-8.2-4.2-11.1-6.3-20.5-10.2-28.5-11.8-1.2-.2-3.4-.9-4.8-1.4-1.4-.5-2.5-.7-2.5-.5 0 .2-1.2 0-2.7-.6-1.6-.6-3.7-1.3-4.8-1.5-4.4-.9-6.3-1.3-13-2.9-6.7-1.5-14-3.1-19.5-4.1-1.4-.2-3.8-.7-5.5-1.1-1.6-.3-3.9-.7-5-.9-1.1-.2-3.3-.6-5-.9-18.8-3.4-28-4.2-45.5-3.9-10.2.1-19.6.5-21 .8-1.4.3-4.1.7-6 1-1.9.2-4.6.7-6 1-1.4.3-3.6.8-5 1-8.5 1.5-27.6 7.6-36.7 11.7-2.3 1.1-4.5 1.9-4.8 1.9-.4 0-2 .9-3.6 2.1-1.6 1.1-2.9 1.8-2.9 1.5 0-.8-11.3 5.5-12.1 6.7-.3.5-1 .8-1.5.8-1-.1-24 14.5-26.2 16.6-.6.6-2.1 1.5-3.2 1.8-1.1.3-2 1.1-2 1.6s-.8 1.3-1.7 1.6c-1.8.7-22.1 15.7-25.8 19-1.1 1-3.3 2.7-5 3.7-1.6 1.1-3.5 2.4-4.1 3-.6.6-2.2 1.8-3.4 2.6-1.2.8-2.8 2-3.4 2.5-.6.6-7.6 5.9-15.6 11.8s-15.2 11.3-16 12c-.9.7-3.6 2.7-6 4.4-2.5 1.7-5.4 4-6.5 5-1.1 1-3.6 3-5.5 4.3-1.9 1.3-3.9 2.9-4.5 3.5-.5.7-3 2.7-5.5 4.6-2.5 1.8-4.7 3.6-5 3.9-1 1.2-12.9 10-13.4 10-.3 0-1.4.7-2.5 1.7-3.9 3.3-25.6 14-29.9 14.7-.7.1-1.8.8-2.4 1.4-.7.7-2.2 1.2-3.5 1.2-1.3 0-2.3.4-2.3 1 0 .5-.6 1-1.4 1-1.4 0-8.6 3.6-13.2 6.6-2.6 1.8-2.7 1.8-4.7-1.2-4.2-6-14.7-15.3-22.8-20.1-7-4.2-35.1-18.3-36.4-18.3-.3 0-3-1.2-6.2-2.6-3.2-1.4-7.1-3.2-8.8-4-1.6-.7-8.2-3.4-14.5-6-6.3-2.5-11.9-4.9-12.5-5.2-.5-.4-1.4-.7-2-.8-.5-.1-2.8-1-5-2s-4.2-1.8-4.5-1.9c-.3-.1-1.6-.6-3-1.2-2.5-1.1-11.6-4.8-15.5-6.3-1.1-.4-2.2-.7-2.5-.7-.3.1-1.8-.6-3.5-1.5-1.6-.8-4.3-2.1-6-2.8-1.6-.7-3.9-1.6-5-2.1s-6.8-2.9-12.7-5.4c-5.9-2.5-11-4.5-11.2-4.5-.2 0-3-1.2-6.2-2.7-3.3-1.5-6.1-2.7-6.4-2.8-1-.3-8.7-3.7-13.8-6.1-2.9-1.3-5.4-2.4-5.7-2.4-.2 0-3.4-1.4-7.2-3.2-3.7-1.8-7-3.2-7.3-3.3-.8 0-10.9-4.9-33-16-29.4-14.6-37.2-18.8-39.4-20.8-1.1-.9-2.4-1.7-2.9-1.7-1.2 0-15.1-8.3-15.5-9.2-.2-.5-.8-.8-1.4-.8-1.2 0-20-12-21-13.5-.4-.5-.8-.6-.8-.2 0 .4-1.2-.4-2.7-1.8-1.5-1.4-3-2.5-3.4-2.5-.3 0-3-1.9-6.1-4.3-3-2.3-7-5.3-8.8-6.7-6-4.6-11.4-9.4-20.8-18.8-5.2-5-9.6-9.2-9.8-9.2-.3 0-1.4-.9-2.6-1.9-2.3-2.2-10.5-6.4-15.7-8-4.9-1.6-26.8-1.3-31.1.3zm58.3 96.2c3.4 1.2 7.2 4 13.9 10.5 32.6 31.5 81.2 58.6 172.3 96.1 52.5 21.6 85.5 36.6 85.5 38.7 0 .4-2 1.6-4.3 2.8-18.4 8.9-34.4 25.3-41.2 42.1-7.7 18.9-8.3 44.6-1.7 65.8l2.8 9-8.5 4.5c-16.8 8.7-45.2 28.5-63.5 44.1-9.3 8-9.9 8.3-19.6 10.1-42.1 8-88.8 7.3-144.7-2.2-13.7-2.3-18.7-5-24.2-13.2-6.8-10.2-13.1-43.1-17.6-92.6-2-21.5-3.7-67.9-3-82.3.3-6.3.8-16.7 1.1-23 1.2-25.2 6-55.4 11.4-72.1 5.7-17.2 12.7-28.6 21.4-34.6 7.8-5.4 12.5-6.2 19.9-3.7zM829 195.4c18.6 3 41.5 7.9 52.5 11.3 8.4 2.6 27.1 12 36.5 18.3 18.4 12.4 26 32.8 26 69.5 0 62.2-18.8 138.4-49.5 201.1-7.5 15.2-9.1 17.7-14.3 22.6-6.5 6-13.1 8.8-26.4 11-9.5 1.6-55 1.6-72.3 0-67.9-6.5-125-25.6-174.9-58.7-4.6-3.1-5.6-4.3-5.2-5.9 3.4-11.9 5.9-32.1 7.6-61.1 2.3-37.6 2.4-49.2.5-59.8-1.7-9.6-6.9-20.7-12.4-26.5l-4.1-4.3 4.7-2.1c18.8-8.1 28-13.7 43.1-26.1 6.9-5.8 17.2-13.6 62.7-47.9 38.2-28.8 59.4-39 88.5-42.7 11.6-1.5 21.2-1.1 37 1.3zM510.3 342c11.6 1.2 17.7 3.9 23.1 10.2 6.3 7.3 7.1 11.9 6.9 38.8-.5 54.4-5.9 72.4-23.2 77.7-6.6 2-24.2 4.3-32.7 4.3-9.7 0-29.4-3.5-34.6-6.1-6.9-3.5-14-11.5-18.6-20.9-3.1-6.2-5.1-12.7-7.7-24.2-3.9-17.5-4.5-29.3-2.1-40.9 3.7-17.4 15.7-31.2 32.2-37 9.7-3.4 33-4.2 56.7-1.9zM400.2 495.3c9.8 6.2 23.6 10.7 37.6 12.3 3.9.4 6.2 1.1 6.2 1.9 0 .7-1.5 7.7-3.4 15.6-6.2 25.7-7.1 34.3-7.1 64.9 0 40 1.6 48.6 20.6 115.2 16.7 58.2 23.5 87.7 26.5 114.7.8 7.6 1.1 7.6-9.6 0-4.1-3-13.4-9.1-20.6-13.6-52.4-32.7-96.2-52.4-133.9-60.2-26.3-5.4-28.7-5.6-72-5.7-22.5-.1-41.8-.2-42.7-.3-2.8-.2-2.2-3.4 2.8-15 22.3-51.5 83.6-130.9 156.5-202.7 16.8-16.5 31.9-30.4 33.1-30.4.4 0 3.1 1.5 6 3.3zm181.3 29.5c9.3 9.8 27.4 24.9 42.9 35.6 41.5 28.8 91.9 49.9 145.9 61.1 9.5 2 18.1 4 19.2 4.5 5.4 2.3 46.8 39.1 58.9 52.5C865 696.9 881 719 881 723.6c0 4.2-6.1 9.3-34.3 28.8-58.5 40.6-171 113.4-191.6 124.1-3.3 1.6-3.4 1.6-2.6-.1 2.6-6.6 5.8-17 7.7-25.8 2-8.9 2.3-12.7 2.3-32.6-.1-24.9-1.1-31.6-8.1-55.3-7.8-26.4-16.6-46.3-54.9-125.7-22-45.7-42.4-91-54.3-121l-3-7.5 4.1-.8c2.3-.5 7.6-1.6 11.7-2.5l7.5-1.7 3.5 5.9c1.9 3.2 7.5 10.1 12.5 15.4z"/></svg>